<?xml version="1.0" encoding="utf-8"?>
<!-- Generator: Adobe Illustrator 16.0.0, SVG Export Plug-In . SVG Version: 6.00 Build 0)  -->
<!DOCTYPE svg PUBLIC "-//W3C//DTD SVG 1.1//EN" "http://www.w3.org/Graphics/SVG/1.1/DTD/svg11.dtd">
<svg version="1.1" id="Layer_1" xmlns="http://www.w3.org/2000/svg" xmlns:xlink="http://www.w3.org/1999/xlink" x="0px" y="0px"
	 width="1230.124px" height="414.042px" viewBox="0 0 1230.124 414.042" enable-background="new 0 0 1230.124 414.042"
	 xml:space="preserve">
<g>
	<path fill-rule="evenodd" clip-rule="evenodd" fill="#111213" d="M945.039,202.816c8.263-17.602,16.164-34.388,24.025-51.192
		c18.993-40.602,37.967-81.213,56.949-121.821c0.211-0.452,0.414-0.908,0.644-1.35c1.141-2.196,2.02-5.019,5.142-4.608
		c3.164,0.416,3.302,3.311,3.584,5.795c1.372,12.073,2.737,24.146,4.06,36.225c3.238,29.577,6.43,59.16,9.682,88.736
		c2.014,18.328,4.071,36.651,6.193,54.967c0.322,2.786,0.924,5.571,1.702,8.269c3.413,11.837,8.557,16.073,20.839,17.325
		c3.143,0.32,6.294,0.559,9.444,0.804c1.196,0.093,2.444,0.125,2.621,1.672c0.177,1.547-0.694,2.312-2.085,2.951
		c-1.453,0.667-2.892,0.681-4.378,0.673c-16.639-0.08-33.255-0.775-49.848-1.97c-5.461-0.393-5.626-1.589-3.053-6.502
		c1.775-3.391,0.718-7.542,0.376-11.313c-2.275-25.019-4.675-50.025-7.04-75.036c-1.999-21.141-4.007-42.281-6.021-63.538
		c-2.038,0.312-2.058,2.11-2.621,3.304c-23.031,48.801-45.986,97.639-69.086,146.408c-1.398,2.951-1.864,7.483-6.114,7.741
		c-4.653,0.282-5.34-4.426-6.939-7.449c-24.643-46.552-47.367-94.039-69.034-142.039c-0.791-1.753-1.194-3.77-3.537-5.734
		c-0.819,9.437-1.568,18.277-2.357,27.113c-1.834,20.532-3.944,41.043-5.45,61.599c-1.216,16.586-3.551,33.102-3.438,49.782
		c0.051,7.539,2.173,10.136,9.597,11.396c2.131,0.362,4.309,0.451,6.438,0.817c1.642,0.282,4.229-0.32,3.929,2.541
		c-0.257,2.447-2.378,2.906-4.513,2.88c-5.16-0.064-10.389,0.361-15.468-0.319c-11.345-1.52-22.589,0.598-33.88,0.324
		c-1.331-0.032-2.703,0.136-3.984-0.129c-1.494-0.31-2.973-1.152-3.037-2.862c-0.079-2.035,1.621-2.093,3.159-2.307
		c15.268-2.128,17.136-4.397,18.735-19.511c3.046-28.768,6.461-57.497,9.652-86.25c3.172-28.583,6.253-57.176,9.389-85.763
		c0.525-4.794,1.181-9.574,1.67-14.371c0.276-2.716,0.392-5.709,3.711-6.23c3.081-0.483,4.117,2.287,5.207,4.531
		c11.247,23.157,22.459,46.33,33.716,69.482c16.627,34.194,33.281,68.375,49.933,102.558
		C943.835,201,944.235,201.527,945.039,202.816z"/>
	<path fill-rule="evenodd" clip-rule="evenodd" fill="#111213" d="M698.327,80.815c0.002,12.332-0.001,24.663,0.004,36.995
		c0.001,1.791-0.453,3.751,2.533,3.691c15.311-0.308,30.636,0.206,45.931-0.923c4.475-0.331,8.479-1.458,11.26-5.416
		c0.798-1.135,2.056-2.347,3.784-1.424c1.63,0.871,1.674,2.532,1.321,3.964c-2.801,11.385-2.683,23.07-3.675,34.64
		c-0.146,1.693-0.064,3.713-2.25,3.8c-2.329,0.093-2.901-1.742-2.843-3.806c0.028-0.994-0.075-1.996-0.175-2.988
		c-0.985-9.847-5.418-14.281-15.29-14.947c-12.124-0.817-24.268-1.138-36.425-1.15c-3.15-0.003-4.277,0.674-4.256,4.091
		c0.152,23.658-0.012,47.317,0.112,70.975c0.075,14.196,3.9,18.963,18.147,20.375c11.389,1.129,22.977,1.269,34.349-0.841
		c10.166-1.886,15.118-7.678,17.341-19.179c0.502-2.598-0.014-6.768,3.644-6.559c4.3,0.245,2.454,4.549,2.284,6.915
		c-0.594,8.259-1.512,16.522-3.435,24.598c-1.587,6.667-3.097,7.921-9.847,8.273c-12.646,0.66-25.287-0.241-37.932-0.414
		c-20.944-0.288-41.885-2.175-62.84-0.241c-1.48,0.137-3.021,0.111-4.48-0.141c-1.313-0.227-2.515-0.854-2.529-2.58
		c-0.015-1.661,0.766-2.453,2.375-2.53c0.166-0.008,0.335-0.015,0.496-0.051c13.779-3.092,14.063-3.059,15.717-17.237
		c1.584-13.567,1.51-27.252,1.516-40.901c0.015-39.326-0.062-78.652-0.18-117.978c-0.015-4.649-0.382-9.31-0.818-13.942
		c-0.648-6.881-3.428-9.979-10.279-11.676c-1.92-0.476-3.922-0.625-5.881-0.95c-2.649-0.438-7.099,1.415-6.973-3.043
		c0.106-3.766,4.345-2.716,6.922-2.658c21.81,0.494,43.619,1.268,65.435,0.783c12.637-0.281,25.319,0.694,37.909-1.147
		c0.821-0.12,1.674-0.121,2.463-0.347c5.791-1.653,6.824-0.868,5.375,4.938c-2.119,8.49-1.893,17.193-2.847,25.786
		c-0.182,1.638-0.47,3.281-0.913,4.865c-0.27,0.963-1.027,1.729-2.162,1.794c-1.385,0.081-2.102-0.92-2.67-1.93
		c-0.304-0.538-0.348-1.268-0.365-1.914c-0.345-13.157-3.361-17.181-19.302-19.15c-12.461-1.54-24.958-0.492-37.425-1.009
		c-2.933-0.122-3.177,1.268-3.162,3.595C698.364,56.151,698.326,68.483,698.327,80.815z"/>
	<path fill-rule="evenodd" clip-rule="evenodd" fill="#111213" d="M515.345,127.892c0.003-27.321-0.075-54.642,0.094-81.962
		c0.023-3.713-0.84-4.763-4.641-4.698c-15.137,0.26-30.271,0.205-45.407,0.966c-10.287,0.517-17.864,4.46-21.971,14.187
		c-0.582,1.377-1.184,2.757-1.912,4.059c-0.677,1.209-1.665,2.18-3.226,1.759c-1.676-0.452-1.788-2.051-1.617-3.253
		c1.564-11.021,3.714-21.925,7.114-32.544c0.617-1.927,1.869-3.32,4.133-2.322c10.558,4.656,21.842,4.167,32.914,4.216
		c38.31,0.169,76.622-0.079,114.933-0.142c5.196-0.009,10.23-1.142,15.288-2.071c2.719-0.5,4.649-0.457,4.523,3.065
		c-0.388,10.806,0.137,21.638-0.945,32.423c-0.17,1.691-0.4,3.596-2.616,3.551c-1.688-0.033-2.538-1.43-2.733-3.064
		c-0.585-4.918-0.271-10.185-4.79-13.674c-5.64-4.355-12.454-5.436-19.209-6.005c-13.436-1.133-26.927-1.054-40.408-1.132
		c-3.315-0.019-4.568,0.609-4.559,4.297c0.13,46.979-0.05,93.958,0.181,140.935c0.058,11.779,0.339,23.595,1.772,35.343
		c1.122,9.196,4.354,12.554,13.578,13.305c2.818,0.229,5.628,0.558,8.447,0.767c1.745,0.129,3.617,0.267,3.418,2.569
		c-0.167,1.93-1.86,2.724-3.611,2.759c-4.83,0.098-9.692,0.388-14.487-0.024c-15.962-1.373-31.901-0.122-47.849,0.042
		c-1.617,0.017-3.337,0.469-4.844-0.606c-0.98-0.699-1.95-1.477-1.611-2.82c0.257-1.017,1.069-1.645,2.17-1.8
		c1.646-0.232,3.288-0.505,4.937-0.718c7.317-0.944,9.454-2.76,10.82-10.089c2.146-11.516,2.069-23.195,2.098-34.848
		C515.38,169.54,515.343,148.716,515.345,127.892z"/>
	<path fill-rule="evenodd" clip-rule="evenodd" fill="#111213" d="M296.863,220.917c0.727-8.774,1.463-17.547,2.173-26.323
		c0.147-1.819,0.61-3.408,2.808-3.358c2.203,0.051,2.626,1.601,2.571,3.473c-0.744,25.436,16.909,38.705,41.956,38.516
		c15.41-0.116,28.026-5.995,34.974-20.435c7.006-14.56,5.013-28.762-4.019-41.881c-7.455-10.83-17.818-18.823-27.849-27.069
		c-11.834-9.729-23.738-19.335-33.122-31.654c-15.386-20.198-16.999-48.482-3.248-67.01c11.209-15.103,27.359-20.198,45.304-21.434
		c14.14-0.975,27.749,2.589,41.563,4.429c2.242,0.299,2.445,1.929,2.259,3.708c-1.043,9.949-0.958,19.936-1.079,29.917
		c-0.012,0.993-0.219,1.985-0.37,2.972c-0.217,1.416-0.765,2.595-2.411,2.711c-1.71,0.122-2.292-1.014-2.576-2.448
		c-0.513-2.594-1.138-5.17-1.55-7.779c-1.579-9.994-7.966-15.693-16.962-19.005c-7.79-2.869-15.909-3.709-24.108-2.904
		c-29.561,2.904-36.269,33.185-23.172,51.74c6.009,8.514,13.972,15.156,22.026,21.628c11.542,9.276,23.496,18.045,33.825,28.766
		c12.937,13.427,21.011,28.722,20.771,47.981c-0.334,26.92-15.262,48.119-41.075,55.908c-20.161,6.084-40.396,5.154-60.167-2.247
		c-7.718-2.889-8.185-3.964-8.189-12.18c-0.001-1.999,0-3.998,0-5.998C297.085,220.934,296.974,220.925,296.863,220.917z"/>
	<path fill-rule="evenodd" clip-rule="evenodd" fill="#111213" d="M200.582,245.772c-23.321,0.014-42.083-16.121-45.205-40.884
		c-4.143-32.87,5.939-61.174,31.398-82.951c14.356-12.279,30.904-16.535,49.103-8.828c18.043,7.641,28.139,21.684,29.624,40.936
		c2.605,33.782-9.901,61.38-36.604,82.248C220.729,242.677,211.077,245.767,200.582,245.772z M168.962,195.048
		c0.016,7.104,0.888,13.976,3.333,20.632c8.676,23.629,34.623,30.053,51.658,11.631c20.662-22.343,30.084-49.428,26.686-79.973
		c-1.451-13.045-8.114-23.605-21.476-28.091c-13.716-4.604-25.44-0.315-34.774,9.846
		C177.331,147.663,170.744,170.497,168.962,195.048z"/>
	<path fill-rule="evenodd" clip-rule="evenodd" fill="#FDFDFD" d="M168.962,195.048c1.781-24.551,8.368-47.385,25.426-65.955
		c9.333-10.161,21.058-14.45,34.774-9.846c13.362,4.486,20.025,15.046,21.476,28.091c3.398,30.545-6.024,57.63-26.686,79.973
		c-17.035,18.421-42.982,11.998-51.658-11.631C169.851,209.024,168.979,202.152,168.962,195.048z"/>
	<rect x="128.691" y="294.029" fill-rule="evenodd" clip-rule="evenodd" fill="#E82F30" width="99.01" height="99.01"/>
	<rect x="300.691" y="294.029" fill-rule="evenodd" clip-rule="evenodd" fill="#EFA539" width="99.01" height="99.01"/>
	<rect x="471.691" y="294.029" fill-rule="evenodd" clip-rule="evenodd" fill="#E8CD25" width="99.01" height="99.01"/>
	<rect x="642.691" y="294.029" fill-rule="evenodd" clip-rule="evenodd" fill="#18AB4D" width="99.01" height="99.01"/>
	<rect x="813.691" y="294.029" fill-rule="evenodd" clip-rule="evenodd" fill="#1986C2" width="99.01" height="99.01"/>
	<rect x="994.691" y="294.029" fill-rule="evenodd" clip-rule="evenodd" fill="#CC348D" width="99.01" height="99.01"/>
	<path fill="#111213" d="M1181.14,333.053c-10.586-5.983-13.197-16.416-13.197-16.416h-12.958c-0.935,8.865,7,18,7,18H70.54v-26.999
		h-15v26.999H22.542v14.999H55.54v26.998h15v-26.998h1091.445c0,0-9.398,13.136-7,17.999h12.958c0,0,0.234-10.416,10.991-15.561
		s35.009-9.438,35.009-9.438S1191.726,339.037,1181.14,333.053z"/>
</g>
</svg>
